# xmcd
#
# Track frame offsets:
#	150
#	10795
#	20105
#	30555
#	38415
#	48812
#	58162
#	68310
#	79277
#	87812
#	96807
#	105910
#	116217
#	124105
#	134882
#
# Disc length: 1933 seconds
#
# Revision: 1
# Processed by: cddbd v1.5.2PL0 Copyright (c) Steve Scherf et al.
# Submitted via: audiograbber 1.83.01
#
DISCID=bb078b0f
DTITLE=Morris Taylor - Original Cowboy Songs 
DYEAR=1900
DGENRE=
TTITLE0=The Canyon Trail
TTITLE1=Dancin In My Cowboyboots
TTITLE2=Sierra Nevada
TTITLE3=Pickup Driving Cowboy
TTITLE4=At Sundown
TTITLE5=Rodeo Cowboy Buckaroo
TTITLE6=Mexico Is Calling Me
TTITLE7=Ride Cowboy Ride
TTITLE8=Melody Of The Wind
TTITLE9=By The Camfire´s Light
TTITLE10=Neon Cowboy
TTITLE11=Saddle For Sale
TTITLE12=Hey World You Like To Date A Cowbo
TTITLE13=Old Cowboy Must Move On
TTITLE14=High Sierra
EXTD=
EXTT0=
EXTT1=
EXTT2=
EXTT3=
EXTT4=
EXTT5=
EXTT6=
EXTT7=
EXTT8=
EXTT9=
EXTT10=
EXTT11=
EXTT12=
EXTT13=
EXTT14=
PLAYORDER=
